<?xml version="1.0" encoding="UTF-8"?>
<svg id="Layer_2" data-name="Layer 2" xmlns="http://www.w3.org/2000/svg" viewBox="0 0 167.97 86.19">
  <defs>
    <style>
      .cls-1 {
        fill: #fff;
      }

      .cls-2 {
        fill: #e3e4e5;
      }
    </style>
  </defs>
  <g id="Layer_3" data-name="Layer 3">
    <g>
      <g>
        <path class="cls-1" d="m14.87,15.72v9.45c-.75.13-1.43.2-2.05.2-3.66,0-6.71-1.2-9.16-3.61-2.44-2.41-3.66-5.43-3.66-9.06S1.23,6.17,3.7,3.71C6.17,1.25,9.16.02,12.7.02c3.94,0,7.04,1.15,9.31,3.45,2.27,2.3,3.41,5.45,3.41,9.44v11.94h-9.13v-11.28c0-1.29-.31-2.31-.94-3.08-.63-.76-1.47-1.15-2.53-1.15-.96,0-1.79.35-2.49,1.05s-1.05,1.53-1.05,2.49c0,1.01.32,1.84.95,2.49.63.65,1.44.98,2.42.98.8,0,1.54-.21,2.22-.63Z"/>
        <path class="cls-1" d="m52.44,24.85h-9.13v-13.75c0-1.4-.58-2.1-1.73-2.1s-1.71.7-1.71,2.1v13.75h-9.13v-13.57c0-3.17,1.05-5.85,3.15-8.02,2.1-2.17,4.67-3.26,7.71-3.26,3.48,0,6.27,1.26,8.37,3.78,1.64,1.97,2.47,4.71,2.47,8.23v12.84Z"/>
        <path class="cls-1" d="m60.91,35.52v-7.93c1.24.52,2.32.78,3.25.78,2.96,0,4.88-1.67,5.76-5-1.59.94-3.16,1.42-4.69,1.42-2.26,0-4.13-.84-5.59-2.53-1.46-1.69-2.2-3.83-2.2-6.43V.51h9.13v13.09c0,1.45.6,2.17,1.81,2.17s1.73-.8,1.73-2.39V.51h9.13v21.73c0,4.05-1.14,7.32-3.42,9.81-2.72,2.96-6.01,4.44-9.86,4.44-1.69,0-3.38-.33-5.05-.98Z"/>
      </g>
      <g>
        <path class="cls-1" d="m13.79,38.2v13.06h5.74v13.5h-5.74c0,2.71.43,4.58,1.28,5.61.85,1.03,2.42,1.54,4.7,1.54v13.43c-.66.02-1.15.03-1.47.03-2.89,0-5.62-.67-8.19-2.02-2.56-1.34-4.62-3.17-6.17-5.47-1.96-2.94-2.94-6.84-2.94-11.69v-27.99h12.78Z"/>
        <path class="cls-1" d="m44.52,50.43v13.67c-.89-.5-1.7-.75-2.43-.75-2.32,0-3.49,1.78-3.49,5.33v16.17h-12.78v-18.63c0-4.92,1.34-8.85,4.03-11.77s6.28-4.39,10.77-4.39c1,0,2.3.13,3.9.38Z"/>
        <path class="cls-1" d="m67.21,72.07v13.23c-1.05.18-2.01.27-2.87.27-5.13,0-9.4-1.69-12.82-5.06-3.42-3.37-5.13-7.6-5.13-12.68s1.73-9.14,5.18-12.58c3.45-3.44,7.65-5.16,12.59-5.16,5.51,0,9.86,1.61,13.04,4.84,3.18,3.22,4.77,7.63,4.77,13.21v16.71h-12.78v-15.79c0-1.8-.44-3.24-1.32-4.31-.88-1.07-2.06-1.61-3.54-1.61-1.34,0-2.51.49-3.49,1.47s-1.47,2.14-1.47,3.49c0,1.41.44,2.58,1.33,3.49.89.91,2.02,1.37,3.38,1.37,1.12,0,2.15-.3,3.11-.89Z"/>
        <path class="cls-1" d="m115.03,50.78l-15.93,35.41-15.72-35.41h12.2l3.62,9.19,3.96-9.19h11.86Z"/>
        <path class="cls-1" d="m149.89,69.88h-19.38c-.3-.98-.44-1.88-.44-2.7,0-1.14.21-2.26.62-3.35h6.49c-.46-2.53-1.88-3.79-4.27-3.79-1.6,0-2.89.68-3.9,2.03-1,1.36-1.5,3.09-1.5,5.21s.48,4,1.45,5.37c.97,1.37,2.24,2.05,3.81,2.05,1.28,0,2.51-.64,3.69-1.91l7.28,8.75c-3.4,2.67-7.17,4-11.31,4-5.06,0-9.31-1.7-12.75-5.09-3.44-3.39-5.16-7.6-5.16-12.61s1.74-9.21,5.21-12.65c3.47-3.44,7.74-5.16,12.8-5.16s9.1,1.68,12.46,5.04,5.04,7.5,5.04,12.42c0,.5-.05,1.3-.14,2.39Z"/>
        <path class="cls-1" d="m167.97,38.2v46.66h-12.78v-46.66h12.78Z"/>
      </g>
      <g>
        <path class="cls-1" d="m142.36,37.72c-.5-.29-.82-.72-.98-1.28-.16-.56-.09-1.08.19-1.56.3-.51.72-.83,1.25-.95.54-.12,1.07-.03,1.61.29.54.31.88.74,1.03,1.27s.08,1.05-.22,1.56c-.28.48-.7.78-1.27.92-.57.14-1.1.06-1.6-.23Zm.74-5.43l5.75-9.77,3.67,2.16-5.75,9.77-3.67-2.16Z"/>
        <path class="cls-1" d="m137.98,16.12l3.67,2.16-3.25,5.52c-.33.56-.26.98.2,1.25.46.27.85.12,1.18-.44l3.25-5.52,3.67,2.16-3.21,5.45c-.75,1.27-1.8,2.1-3.16,2.48-1.36.38-2.64.21-3.87-.51-1.4-.82-2.22-1.99-2.47-3.5-.19-1.18.12-2.47.95-3.89l3.03-5.16Z"/>
        <path class="cls-1" d="m128.26,15.82l1.98-3.36c.65.12,1.21.32,1.69.6,1.18.7,1.92,1.73,2.21,3.11.29,1.38.06,2.71-.7,4.01-.82,1.4-2.01,2.29-3.56,2.67-1.55.38-3.05.15-4.48-.7-.76-.45-1.41-1.03-1.92-1.75-.52-.72-.82-1.45-.92-2.2-.16-1.25.23-2.69,1.19-4.31l1.89-3.22c1.03-1.75,2.35-2.87,3.98-3.38,1.63-.5,3.24-.29,4.83.64.48.28,1.02.76,1.62,1.44l-1.96,3.33c-.32-.54-.73-.96-1.22-1.25-.66-.39-1.3-.47-1.91-.25-.61.22-1.16.74-1.64,1.55l-2.16,3.68c-.6,1.03-.49,1.78.34,2.27.35.21.74.25,1.17.14.42-.12.74-.35.95-.7.22-.37.28-.76.17-1.15s-.34-.7-.72-.92c-.25-.15-.52-.23-.82-.24Z"/>
      </g>
      <g>
        <line class="cls-1" x1="97.64" y1="32.3" x2="97.63" y2="32.31"/>
        <polygon class="cls-1" points="97.63 32.31 93.25 34.62 93.32 33.68 96.38 30.26 97.63 32.31"/>
        <line class="cls-1" x1="97.64" y1="32.32" x2="97.63" y2="32.31"/>
        <path class="cls-1" d="m93.54,28.26l10.03,9.88c.47.46,1.24.26,1.45-.38l7.25-21.92c.24-.72-.38-1.42-1.07-1.23l-22.96,6.46c-.68.19-.89,1.1-.38,1.61l5.68,5.59"/>
        <path class="cls-2" d="m109.19,17.71l-12.83,13.32-3.05,3.53c-.23.25-.62.04-.57-.31l.86-5.95,15.6-10.6Z"/>
      </g>
    </g>
  </g>
</svg>